<?xml version="1.0" standalone="no"?>
<!DOCTYPE svg PUBLIC "-//W3C//DTD SVG 20010904//EN"
 "http://www.w3.org/TR/2001/REC-SVG-20010904/DTD/svg10.dtd">
<svg version="1.0" xmlns="http://www.w3.org/2000/svg"
 width="790.000000pt" height="790.000000pt" viewBox="0 0 790.000000 790.000000"
 preserveAspectRatio="xMidYMid meet">
<metadata>
Created by potrace 1.14, written by Peter Selinger 2001-2017
</metadata>
<g transform="translate(0.000000,790.000000) scale(0.100000,-0.100000)"
fill="#000000" stroke="none">
<path d="M685 7203 c-55 -7 -139 -35 -170 -56 -92 -63 -142 -179 -91 -212 26
-17 41 -15 143 20 75 26 161 36 236 27 39 -4 49 -17 19 -26 -35 -12 -120 -108
-152 -173 -28 -57 -34 -81 -38 -158 -5 -111 13 -183 64 -257 20 -27 33 -52 30
-55 -3 -3 -24 6 -47 21 -49 33 -64 25 -77 -37 -10 -52 -1 -113 28 -191 17 -43
39 -75 85 -121 34 -34 77 -67 94 -74 35 -15 39 -27 12 -36 -10 -3 -46 -36 -80
-73 -34 -37 -67 -73 -74 -80 -7 -7 -43 -36 -82 -64 -79 -57 -196 -171 -273
-266 -131 -159 -210 -324 -228 -475 -8 -74 -13 -92 -28 -103 -35 -25 -46 -92
-51 -294 -4 -207 12 -312 79 -538 45 -150 151 -335 261 -458 159 -177 203
-222 291 -299 237 -207 451 -326 785 -438 213 -72 314 -96 504 -122 73 -10
268 -18 425 -18 160 -1 417 10 428 17 4 2 30 7 57 10 69 9 299 64 362 86 51
18 55 18 145 -1 51 -11 100 -22 108 -23 8 -2 44 -7 79 -11 61 -7 67 -10 135
-73 133 -122 222 -217 297 -317 42 -55 82 -111 89 -124 39 -73 46 -231 14
-311 -18 -45 -38 -77 -104 -160 -133 -167 -170 -409 -90 -595 10 -22 37 -69
61 -105 l44 -66 -21 -38 c-22 -39 -20 -79 5 -110 17 -20 80 -35 176 -42 50 -3
110 -7 135 -10 57 -5 438 -5 510 0 100 7 234 18 269 22 46 6 105 40 124 74 25
42 22 122 -7 179 -41 83 -12 195 67 261 17 14 39 34 49 46 13 14 29 20 51 18
17 -1 70 -3 116 -3 l83 -1 -7 -27 c-24 -83 -5 -201 44 -283 34 -56 38 -67 26
-80 -8 -9 -21 -33 -30 -53 -13 -33 -14 -41 -1 -65 16 -31 45 -48 96 -56 19 -3
46 -8 60 -11 25 -5 124 -13 235 -19 37 -2 73 -11 95 -24 53 -30 227 -58 330
-52 68 4 95 3 140 -6 25 -5 133 -8 240 -7 346 2 374 2 455 1 113 -2 246 8 330
26 11 3 47 8 80 11 112 12 203 75 256 177 17 33 19 60 19 217 l0 179 -40 51
c-48 60 -109 107 -152 116 -29 7 -30 9 -24 46 6 36 14 163 20 294 2 53 8 68
49 127 26 37 69 108 97 157 l50 89 0 706 0 707 -49 123 c-162 405 -394 759
-683 1044 l-65 64 3 70 c5 131 -52 270 -143 347 -20 17 -34 34 -30 37 3 3 33
9 67 11 55 5 64 3 88 -19 65 -59 111 -80 190 -83 36 -2 46 2 66 26 27 32 26
68 -1 127 -31 65 -143 119 -270 129 -92 7 -144 -11 -213 -76 l-50 -47 -88 18
c-48 10 -93 16 -99 13 -7 -2 -13 2 -13 10 0 7 -22 92 -50 187 -52 182 -140
417 -183 490 -54 93 -155 177 -257 213 -54 20 -57 20 -190 46 -150 28 -241 42
-360 53 -25 3 -65 7 -90 10 -121 14 -373 31 -525 35 -26 1 -35 9 -62 54 -46
77 -155 212 -231 288 -130 129 -239 195 -301 184 -96 -18 -289 -187 -457 -400
-39 -50 -76 -99 -81 -109 -13 -23 -6 -22 -178 -31 -76 -4 -145 -8 -154 -10 -9
-1 -50 -6 -91 -10 -41 -4 -78 -9 -81 -11 -3 -1 -28 -6 -55 -9 -262 -31 -409
-137 -514 -369 -61 -135 -95 -267 -116 -456 -3 -30 -8 -66 -10 -80 -4 -25 -9
-108 -19 -350 -5 -123 -7 -140 -20 -210 -3 -19 -8 -48 -11 -65 -3 -16 -7 -37
-9 -45 -2 -8 -6 -33 -10 -55 -12 -83 -27 -162 -40 -210 -8 -27 -17 -64 -20
-82 -7 -45 -24 -85 -32 -80 -5 3 -33 8 -63 12 -92 12 -237 52 -304 85 -132 65
-261 235 -294 386 -9 41 -8 43 38 93 56 60 101 149 102 200 1 109 -68 208
-186 268 -83 42 -159 31 -258 -38 -45 -32 -42 -21 10 36 95 104 115 217 56
325 -35 65 -138 169 -192 195 -46 22 -51 31 -24 40 34 10 121 106 133 144 11
38 8 198 -5 236 -5 15 3 33 30 67 46 60 55 116 27 179 -12 27 -20 70 -21 111
-3 134 -70 242 -185 297 -95 47 -173 57 -284 37 -36 -7 -42 -5 -48 13 -10 31
-86 106 -130 129 -41 20 -125 32 -180 25z"/>
</g>
</svg>
